%TF.GenerationSoftware,KiCad,Pcbnew,9.0.7*%
%TF.CreationDate,2026-02-11T23:59:08+05:30*%
%TF.ProjectId,simple MCU board,73696d70-6c65-4204-9d43-5520626f6172,rev?*%
%TF.SameCoordinates,Original*%
%TF.FileFunction,Soldermask,Bot*%
%TF.FilePolarity,Negative*%
%FSLAX46Y46*%
G04 Gerber Fmt 4.6, Leading zero omitted, Abs format (unit mm)*
G04 Created by KiCad (PCBNEW 9.0.7) date 2026-02-11 23:59:08*
%MOMM*%
%LPD*%
G01*
G04 APERTURE LIST*
G04 Aperture macros list*
%AMRoundRect*
0 Rectangle with rounded corners*
0 $1 Rounding radius*
0 $2 $3 $4 $5 $6 $7 $8 $9 X,Y pos of 4 corners*
0 Add a 4 corners polygon primitive as box body*
4,1,4,$2,$3,$4,$5,$6,$7,$8,$9,$2,$3,0*
0 Add four circle primitives for the rounded corners*
1,1,$1+$1,$2,$3*
1,1,$1+$1,$4,$5*
1,1,$1+$1,$6,$7*
1,1,$1+$1,$8,$9*
0 Add four rect primitives between the rounded corners*
20,1,$1+$1,$2,$3,$4,$5,0*
20,1,$1+$1,$4,$5,$6,$7,0*
20,1,$1+$1,$6,$7,$8,$9,0*
20,1,$1+$1,$8,$9,$2,$3,0*%
G04 Aperture macros list end*
%ADD10C,0.970000*%
%ADD11C,1.190000*%
%ADD12RoundRect,0.250000X-0.550000X-0.550000X0.550000X-0.550000X0.550000X0.550000X-0.550000X0.550000X0*%
%ADD13C,1.600000*%
%ADD14R,1.600000X1.600000*%
G04 APERTURE END LIST*
D10*
%TO.C,SW1*%
X124000000Y-100460000D03*
X124000000Y-103000000D03*
D11*
X125270000Y-101730000D03*
D10*
X126540000Y-100460000D03*
X126540000Y-103000000D03*
%TD*%
D12*
%TO.C,U1*%
X111710000Y-72190000D03*
D13*
X111710000Y-74730000D03*
X111710000Y-77270000D03*
X111710000Y-79810000D03*
X111710000Y-82350000D03*
X111710000Y-84890000D03*
X111710000Y-87430000D03*
X111710000Y-89970000D03*
X111710000Y-92510000D03*
X111710000Y-95050000D03*
X111710000Y-97590000D03*
X111710000Y-100130000D03*
X111710000Y-102670000D03*
X111710000Y-105210000D03*
X119330000Y-105210000D03*
X119330000Y-102670000D03*
X119330000Y-100130000D03*
X119330000Y-97590000D03*
X119330000Y-95050000D03*
X119330000Y-92510000D03*
X119330000Y-89970000D03*
X119330000Y-87430000D03*
X119330000Y-84890000D03*
X119330000Y-82350000D03*
X119330000Y-79810000D03*
X119330000Y-77270000D03*
X119330000Y-74730000D03*
X119330000Y-72190000D03*
%TD*%
D14*
%TO.C,10K1*%
X108000000Y-72000000D03*
D13*
X105460000Y-72000000D03*
X102920000Y-72000000D03*
X100380000Y-72000000D03*
%TD*%
D10*
%TO.C,J1*%
X103960000Y-101960000D03*
X103960000Y-104500000D03*
D11*
X105230000Y-103230000D03*
D10*
X106500000Y-101960000D03*
X106500000Y-104500000D03*
%TD*%
D13*
%TO.C,22pF1*%
X109500000Y-84000000D03*
X102000000Y-84000000D03*
%TD*%
%TO.C,0.1uF1*%
X98500000Y-76500000D03*
X98500000Y-84000000D03*
%TD*%
%TO.C,0.1uF2*%
X123000000Y-92000000D03*
X130500000Y-92000000D03*
%TD*%
%TO.C,22pF2*%
X106000000Y-96500000D03*
X106000000Y-89000000D03*
%TD*%
D10*
%TO.C,XTAL1*%
X101000000Y-93500000D03*
X101000000Y-90960000D03*
D11*
X99730000Y-92230000D03*
D10*
X98460000Y-93500000D03*
X98460000Y-90960000D03*
%TD*%
M02*
