M48
; DRILL file {KiCad 9.0.7} date 2026-02-11T23:57:50+0530
; FORMAT={-:-/ absolute / metric / decimal}
; #@! TF.CreationDate,2026-02-11T23:57:50+05:30
; #@! TF.GenerationSoftware,Kicad,Pcbnew,9.0.7
; #@! TF.FileFunction,Plated,1,2,PTH
FMAT,2
METRIC
; #@! TA.AperFunction,Plated,PTH,ViaDrill
T1C0.300
; #@! TA.AperFunction,Plated,PTH,ComponentDrill
T2C0.800
%
G90
G05
T1
X107.0Y-79.0
X107.5Y-97.0
T2
X98.5Y-76.5
X98.5Y-84.0
X100.38Y-72.0
X102.0Y-84.0
X102.92Y-72.0
X105.46Y-72.0
X106.0Y-89.0
X106.0Y-96.5
X108.0Y-72.0
X109.5Y-84.0
X111.71Y-72.19
X111.71Y-74.73
X111.71Y-77.27
X111.71Y-79.81
X111.71Y-82.35
X111.71Y-84.89
X111.71Y-87.43
X111.71Y-89.97
X111.71Y-92.51
X111.71Y-95.05
X111.71Y-97.59
X111.71Y-100.13
X111.71Y-102.67
X111.71Y-105.21
X119.33Y-72.19
X119.33Y-74.73
X119.33Y-77.27
X119.33Y-79.81
X119.33Y-82.35
X119.33Y-84.89
X119.33Y-87.43
X119.33Y-89.97
X119.33Y-92.51
X119.33Y-95.05
X119.33Y-97.59
X119.33Y-100.13
X119.33Y-102.67
X119.33Y-105.21
X123.0Y-92.0
X130.5Y-92.0
M30
